<svg width="22" height="22" viewBox="0 0 22 22" fill="none" xmlns="http://www.w3.org/2000/svg">
<g id="Symbol">
<path fill-rule="evenodd" clip-rule="evenodd" d="M3 1C1.89543 1 1 1.89543 1 3V19C1 20.1046 1.89543 21 3 21H19C20.1046 21 21 20.1046 21 19V3C21 1.89543 20.1046 1 19 1H3ZM7.58057 6.58057C7.02828 6.58057 6.58057 7.02829 6.58057 7.58057V14.4194C6.58057 14.9717 7.02828 15.4194 7.58057 15.4194H14.4194C14.9717 15.4194 15.4194 14.9717 15.4194 14.4194V7.58057C15.4194 7.02829 14.9717 6.58057 14.4194 6.58057H7.58057Z" fill="#1D4ED8"/>
<path d="M1.5 3C1.5 2.17157 2.17157 1.5 3 1.5V0.5C1.61929 0.5 0.5 1.61929 0.5 3H1.5ZM1.5 19V3H0.5V19H1.5ZM3 20.5C2.17157 20.5 1.5 19.8284 1.5 19H0.5C0.5 20.3807 1.61929 21.5 3 21.5V20.5ZM19 20.5H3V21.5H19V20.5ZM20.5 19C20.5 19.8284 19.8284 20.5 19 20.5V21.5C20.3807 21.5 21.5 20.3807 21.5 19H20.5ZM20.5 3V19H21.5V3H20.5ZM19 1.5C19.8284 1.5 20.5 2.17157 20.5 3H21.5C21.5 1.61929 20.3807 0.5 19 0.5V1.5ZM3 1.5H19V0.5H3V1.5ZM7.08057 7.58057C7.08057 7.30443 7.30442 7.08057 7.58057 7.08057V6.08057C6.75214 6.08057 6.08057 6.75214 6.08057 7.58057H7.08057ZM7.08057 14.4194V7.58057H6.08057V14.4194H7.08057ZM7.58057 14.9194C7.30442 14.9194 7.08057 14.6955 7.08057 14.4194H6.08057C6.08057 15.2478 6.75214 15.9194 7.58057 15.9194V14.9194ZM14.4194 14.9194H7.58057V15.9194H14.4194V14.9194ZM14.9194 14.4194C14.9194 14.6955 14.6955 14.9194 14.4194 14.9194V15.9194C15.2478 15.9194 15.9194 15.2478 15.9194 14.4194H14.9194ZM14.9194 7.58057V14.4194H15.9194V7.58057H14.9194ZM14.4194 7.08057C14.6955 7.08057 14.9194 7.30443 14.9194 7.58057H15.9194C15.9194 6.75214 15.2478 6.08057 14.4194 6.08057V7.08057ZM7.58057 7.08057H14.4194V6.08057H7.58057V7.08057Z" fill="black"/>
</g>
</svg>
